<svg width="20" height="20" viewBox="0 0 20 20" fill="none" xmlns="http://www.w3.org/2000/svg">
<path d="M0 7.94118C0 4.89625 1.24591 2.11653 3.2801 0H4.9977C2.63893 1.99272 1.17647 4.81024 1.17647 7.94118C1.17647 10.764 2.3629 13.3326 4.32675 15.2746L4.32789 15.2757C4.65703 15.599 4.69107 15.9558 4.70818 16.3454C4.72535 16.7363 4.67124 17.1744 4.53814 17.6218C4.42549 18.0005 4.21206 18.3804 3.96255 18.7362C4.46689 18.6408 4.91309 18.4682 5.36535 18.2606C6.20043 17.8772 7.21292 17.4322 8.45588 17.9343C9.91979 18.5055 11.5354 18.8235 13.2353 18.8235C15.7498 18.8235 18.0746 18.1251 20 16.9439V18.3077C18.0183 19.383 15.7043 20 13.2353 20C11.386 20 9.62296 19.654 8.0216 19.028L8.0147 19.0257C7.15943 18.6802 6.70217 18.9417 5.85593 19.3302C5.00968 19.7187 3.86141 20.2075 2.23805 19.8828C2.11076 19.8575 1.99541 19.7908 1.90998 19.6931C1.82454 19.5954 1.7738 19.4722 1.76568 19.3427C1.75755 19.2131 1.79248 19.0846 1.86503 18.9769C1.93759 18.8693 2.04369 18.7887 2.16682 18.7477C2.81509 18.5316 3.2183 17.9343 3.41107 17.2863C3.50746 16.9623 3.54332 16.6352 3.53286 16.3971C3.52273 16.1664 3.42083 16.036 3.49954 16.111C1.3342 13.9698 0 11.0949 0 7.94118Z" fill="white"/>
<path d="M14.3145 5.00007C14.1769 5.00232 14.0457 5.06166 13.9498 5.16505C13.8539 5.26845 13.8011 5.40746 13.803 5.55157V10.4482C13.802 10.5203 13.8147 10.5919 13.8404 10.6588C13.8661 10.7257 13.9042 10.7866 13.9526 10.8379C14.0009 10.8892 14.0585 10.93 14.1221 10.9578C14.1856 10.9857 14.2538 11 14.3227 11C14.3915 11 14.4597 10.9857 14.5233 10.9578C14.5868 10.93 14.6444 10.8892 14.6928 10.8379C14.7411 10.7866 14.7793 10.7257 14.8049 10.6588C14.8306 10.5919 14.8433 10.5203 14.8424 10.4482V5.55157C14.8433 5.47878 14.8303 5.40653 14.8041 5.3391C14.7779 5.27167 14.739 5.21043 14.6898 5.159C14.6406 5.10757 14.582 5.06701 14.5176 5.03971C14.4531 5.01241 14.3841 4.99893 14.3145 5.00007ZM6.52711 5.55157C6.45824 5.55055 6.38987 5.56387 6.32596 5.59076C6.26205 5.61764 6.20388 5.65755 6.15484 5.70818C6.1058 5.7588 6.06685 5.81912 6.04027 5.88564C6.01369 5.95215 6 6.02354 6 6.09564C6 6.16774 6.01369 6.23913 6.04027 6.30564C6.06685 6.37216 6.1058 6.43248 6.15484 6.4831C6.20388 6.53373 6.26205 6.57364 6.32596 6.60052C6.38987 6.62741 6.45824 6.64073 6.52711 6.63971H8.18874L6.08658 10.1602C6.03753 10.2425 6.01041 10.3371 6.00802 10.4341C6.00564 10.5311 6.02807 10.627 6.07301 10.7119C6.11795 10.7968 6.18374 10.8675 6.26359 10.9168C6.34343 10.9661 6.43441 10.9922 6.52711 10.9923H9.12563C9.19449 10.9933 9.26287 10.98 9.32677 10.9531C9.39068 10.9262 9.44885 10.8863 9.49789 10.8356C9.54694 10.785 9.58588 10.7247 9.61246 10.6582C9.63904 10.5917 9.65273 10.5203 9.65273 10.4482C9.65273 10.3761 9.63904 10.3047 9.61246 10.2382C9.58588 10.1717 9.54694 10.1113 9.49789 10.0607C9.44885 10.0101 9.39068 9.97018 9.32677 9.9433C9.26287 9.91641 9.19449 9.90309 9.12563 9.90411H7.46399L9.56616 6.38361C9.6152 6.30127 9.64233 6.2067 9.64471 6.1097C9.6471 6.01269 9.62466 5.91678 9.57972 5.83191C9.53479 5.74704 9.46899 5.67629 9.38914 5.627C9.3093 5.57771 9.21832 5.55167 9.12563 5.55157H6.52711ZM12.7554 7.17634C12.6702 7.17791 12.5866 7.20142 12.5121 7.24478C12.4376 7.28814 12.3744 7.35003 12.3281 7.42499C12.0695 7.27633 11.7779 7.18378 11.4643 7.18378C10.4659 7.18378 9.64533 8.04278 9.64533 9.08801C9.64533 10.1333 10.4659 10.9923 11.4643 10.9923C11.7776 10.9923 12.0687 10.8994 12.3271 10.751C12.3883 10.8502 12.4787 10.9258 12.5846 10.9664C12.6905 11.0071 12.8061 11.0106 12.9141 10.9764C13.022 10.9422 13.1164 10.8722 13.183 10.7769C13.2496 10.6816 13.2848 10.5662 13.2833 10.4482V9.08801V7.72784C13.2842 7.65505 13.2712 7.5828 13.245 7.51537C13.2188 7.44794 13.1799 7.3867 13.1307 7.33527C13.0815 7.28384 13.0229 7.24328 12.9585 7.21598C12.894 7.18868 12.825 7.1752 12.7554 7.17634ZM17.181 7.18378C16.1826 7.18378 15.3621 8.04278 15.3621 9.08801C15.3621 10.1333 16.1826 10.9923 17.181 10.9923C18.1795 10.9923 19 10.1333 19 9.08801C19 8.04278 18.1795 7.18378 17.181 7.18378ZM11.4643 8.27191C11.901 8.27191 12.2438 8.63085 12.2438 9.08801C12.2438 9.54518 11.901 9.90411 11.4643 9.90411C11.0276 9.90411 10.6847 9.54518 10.6847 9.08801C10.6847 8.63085 11.0276 8.27191 11.4643 8.27191ZM17.181 8.27191C17.6177 8.27191 17.9606 8.63085 17.9606 9.08801C17.9606 9.54518 17.6177 9.90411 17.181 9.90411C16.7443 9.90411 16.4015 9.54518 16.4015 9.08801C16.4015 8.63085 16.7443 8.27191 17.181 8.27191Z" fill="white"/>
</svg>
