<svg width="50" height="50" viewBox="0 0 50 50" fill="none" xmlns="http://www.w3.org/2000/svg">
<path d="M18.6113 19.069V14.1411H1C0.999984 18.7469 4.37565 24.8182 11.0178 24.8182" stroke="#174B9C" stroke-width="0.821317"/>
<path d="M18.6113 30.5674V35.4953H1C0.999984 30.8895 4.37565 24.8182 11.0178 24.8182" stroke="#174B9C" stroke-width="0.821317"/>
<path d="M30.5194 18.6583V13.7304H48.999C48.999 18.6905 45.4714 24.8182 38.5272 24.8182" stroke="#174B9C" stroke-width="0.821317"/>
<path d="M30.1102 30.931L35.0381 30.931L35.0381 49C30.4323 49 24.7716 45.8334 24.7716 39.1912" stroke="#174B9C" stroke-width="0.821317"/>
<path d="M19.0226 18.6583L14.0947 18.6583L14.0947 1C18.7005 0.999984 24.7719 4.37565 24.7719 11.0178" stroke="#174B9C" stroke-width="0.821317"/>
<path d="M19.0226 30.9781L14.0947 30.9781L14.0947 49C18.7005 49 24.7718 45.6243 24.7718 38.9821" stroke="#174B9C" stroke-width="0.821317"/>
<path d="M30.5204 30.5674V35.4953H48.1787C48.1787 30.8895 44.8031 24.8182 38.1609 24.8182" stroke="#174B9C" stroke-width="0.821317"/>
<path d="M30.1102 18.2477L35.0381 18.2477L35.0381 1C30.4323 0.999983 24.7716 4.41893 24.7716 11.0611" stroke="#174B9C" stroke-width="0.821317"/>
<path d="M21.0756 24.8182H10.3984" stroke="#174B9C" stroke-width="0.821317"/>
<path d="M39.1449 24.8182L28.4678 24.8182" stroke="#174B9C" stroke-width="0.821317"/>
<path d="M24.7715 21.1223L24.7715 10.8558" stroke="#174B9C" stroke-width="0.821317"/>
<path d="M24.7715 39.1912L24.7715 28.5141" stroke="#174B9C" stroke-width="0.821317"/>
<circle cx="24.7716" cy="24.8182" r="3.69593" stroke="#174B9C" stroke-width="0.821317"/>
</svg>
