<svg width="47" height="47" viewBox="0 0 47 47" fill="none" xmlns="http://www.w3.org/2000/svg">
<path d="M17.5485 17.9787V13.3481H1C0.999985 17.676 4.17194 23.3809 10.4133 23.3809" stroke="#F4C233"/>
<path d="M17.5485 28.7833V33.4138H1C0.999985 29.0859 4.17194 23.381 10.4133 23.381" stroke="#F4C233"/>
<path d="M28.7395 17.5932V12.9626H46.104C46.104 17.6234 42.7892 23.3813 36.2641 23.3813" stroke="#F4C233"/>
<path d="M28.3534 29.1252L32.9839 29.1252L32.9839 46.1038C28.656 46.1038 23.337 43.1283 23.337 36.8869" stroke="#F4C233"/>
<path d="M17.9347 17.593L13.3042 17.593L13.3042 1.00024C17.6321 1.00023 23.337 4.17219 23.337 10.4136" stroke="#F4C233"/>
<path d="M17.9347 29.1694L13.3042 29.1694L13.3042 46.1038C17.6321 46.1038 23.337 42.9318 23.337 36.6904" stroke="#F4C233"/>
<path d="M28.7388 28.7833V33.4138H45.3315C45.3316 29.0859 42.1596 23.381 35.9182 23.381" stroke="#F4C233"/>
<path d="M28.3534 17.2071L32.9839 17.2071L32.9839 1.00024C28.656 1.00023 23.337 4.21285 23.337 10.4542" stroke="#F4C233"/>
<path d="M19.8639 23.3811H9.83105" stroke="#F4C233"/>
<path d="M36.8424 23.3811L26.8096 23.3811" stroke="#F4C233"/>
<path d="M23.3364 19.9086L23.3364 10.2617" stroke="#F4C233"/>
<path d="M23.3364 36.8868L23.3364 26.854" stroke="#F4C233"/>
<circle cx="23.3373" cy="23.3812" r="3.35877" stroke="#F4C233"/>
</svg>
