<svg width="165" height="141" viewBox="0 0 165 141" fill="none" xmlns="http://www.w3.org/2000/svg">
<path d="M17.6847 101.079C15.0542 101.079 12.9971 102.407 12.0246 104.683C11.0522 102.407 9.00132 101.079 6.36451 101.079C2.49968 101.079 0 103.747 0 107.883V120.998H1.47736V107.883C1.47736 104.557 3.35991 102.489 6.39568 102.489C9.43144 102.489 11.2891 104.607 11.2891 107.883V120.998H12.7602V107.883C12.7602 104.607 14.6801 102.489 17.6536 102.489C20.627 102.489 22.5719 104.557 22.5719 107.883V120.998H24.043V107.883C24.043 103.747 21.5433 101.079 17.6785 101.079" fill="#F4C233"/>
<path d="M28.1836 120.998H42.4523V119.594H29.6547V111.772H40.8004V110.362H29.6547V102.862H42.4523V101.452H28.1836V120.998Z" fill="#F4C233"/>
<path d="M53.4282 119.594H47.8803V102.862H53.4282C58.9574 102.862 62.1303 105.91 62.1303 111.228C62.1303 116.546 58.9574 119.594 53.4282 119.594ZM53.4282 101.452H46.4092V120.998H53.4282C59.799 120.998 63.6015 117.343 63.6015 111.222C63.6015 105.1 59.799 101.452 53.4282 101.452Z" fill="#F4C233"/>
<path d="M68.808 101.452H67.3369V120.998H68.808V101.452Z" fill="#F4C233"/>
<path d="M72.3418 102.862H79.2486V120.998H80.7198V102.862H87.6578V101.452H72.3418V102.862Z" fill="#F4C233"/>
<path d="M91.0791 120.998H105.342V119.594H92.5502V111.772H103.696V110.362H92.5502V102.862H105.342V101.452H91.0791V120.998Z" fill="#F4C233"/>
<path d="M118.202 111.835H110.778V102.862H118.202C122.154 102.862 122.983 105.296 122.983 107.333C122.983 109.369 122.154 111.835 118.202 111.835ZM124.454 107.333C124.454 103.595 122.173 101.452 118.202 101.452H109.307V120.998H110.778V113.239H117.579L123.607 120.998H125.495L119.393 113.182C122.572 112.771 124.454 110.627 124.454 107.333Z" fill="#F4C233"/>
<path d="M130.195 102.862H137.619C141.571 102.862 142.4 105.296 142.4 107.333C142.4 109.369 141.571 111.835 137.619 111.835H130.195V102.862ZM143.871 107.333C143.871 103.595 141.59 101.452 137.619 101.452H128.724V120.998H130.195V113.239H136.996L143.024 120.998H144.912L138.81 113.182C141.989 112.771 143.865 110.627 143.865 107.333" fill="#F4C233"/>
<path d="M162.814 109.382V112.702H149.131V109.382C149.131 105.063 151.68 102.489 155.957 102.489C160.233 102.489 162.814 105.069 162.814 109.382ZM155.957 101.079C150.776 101.079 147.685 104.184 147.685 109.382V121.005H149.125V114.112H162.807V121.005H164.278V109.382C164.278 104.184 161.168 101.079 155.95 101.079" fill="#F4C233"/>
<path d="M16.8817 137.219H18.0162C18.1845 137.219 18.3529 137.206 18.5149 137.174C18.677 137.149 18.8266 137.099 18.9575 137.023C19.0884 136.947 19.1882 136.846 19.2692 136.706C19.344 136.567 19.3876 136.39 19.3876 136.175C19.3876 135.96 19.3502 135.777 19.2692 135.644C19.1944 135.505 19.0884 135.404 18.9575 135.328C18.8266 135.252 18.6832 135.208 18.5149 135.176C18.3466 135.151 18.1845 135.138 18.0162 135.138H16.8817V137.219ZM16.0215 134.373H18.2593C18.6645 134.373 19.0011 134.43 19.2692 134.544C19.531 134.658 19.7429 134.797 19.8926 134.974C20.0484 135.145 20.1544 135.341 20.2105 135.556C20.2728 135.771 20.2977 135.979 20.2977 136.182C20.2977 136.384 20.2603 136.586 20.1918 136.776C20.1232 136.966 20.0172 137.143 19.8801 137.295C19.7429 137.453 19.5809 137.579 19.3876 137.687C19.1944 137.794 18.9762 137.857 18.7393 137.883L20.5471 140.83H19.4687L17.8542 137.984H16.8942V140.83H16.034V134.373H16.0215Z" fill="#F4C233"/>
<path d="M24.6553 134.373H28.7632V135.195H25.5155V137.118H28.5388V137.94H25.5155V140.007H28.9253V140.823H24.6553V134.373Z" fill="#F4C233"/>
<path d="M33.4811 139.476C33.637 139.716 33.8365 139.887 34.0796 140.001C34.3227 140.115 34.572 140.172 34.8276 140.172C34.971 140.172 35.1206 140.146 35.2702 140.102C35.4198 140.058 35.5569 139.988 35.6816 139.894C35.8063 139.805 35.906 139.691 35.9808 139.558C36.0556 139.426 36.0993 139.267 36.0993 139.09C36.0993 138.837 36.0244 138.654 35.8624 138.521C35.7065 138.388 35.5133 138.281 35.2826 138.192C35.052 138.104 34.7964 138.022 34.5284 137.939C34.2541 137.857 34.0048 137.743 33.7741 137.598C33.5435 137.453 33.3502 137.257 33.1944 137.01C33.0386 136.763 32.9637 136.428 32.9637 136.011C32.9637 135.821 33.0012 135.625 33.0822 135.41C33.1632 135.195 33.2879 135.005 33.4624 134.828C33.637 134.651 33.8614 134.506 34.1294 134.386C34.4037 134.265 34.7279 134.208 35.1143 134.208C35.4634 134.208 35.7938 134.259 36.1117 134.354C36.4296 134.449 36.7101 134.651 36.947 134.948L36.2489 135.593C36.1429 135.423 35.987 135.284 35.7876 135.182C35.5881 135.081 35.3637 135.024 35.1143 135.024C34.865 135.024 34.6718 135.056 34.5159 135.119C34.3538 135.182 34.2292 135.265 34.1357 135.366C34.0422 135.467 33.9736 135.574 33.9362 135.688C33.8988 135.802 33.8801 135.91 33.8801 136.004C33.8801 136.276 33.9549 136.485 34.1107 136.637C34.2666 136.782 34.4598 136.902 34.6905 136.991C34.9211 137.079 35.1704 137.162 35.4447 137.238C35.719 137.313 35.9683 137.415 36.199 137.541C36.4296 137.674 36.6229 137.851 36.7787 138.072C36.9346 138.294 37.0156 138.597 37.0156 138.989C37.0156 139.299 36.9595 139.577 36.8411 139.83C36.7226 140.077 36.5668 140.292 36.3673 140.463C36.1678 140.633 35.9372 140.76 35.6691 140.855C35.4011 140.943 35.1081 140.994 34.8027 140.994C34.3975 140.994 34.011 140.918 33.6432 140.773C33.2754 140.627 32.9887 140.399 32.7705 140.096L33.4811 139.476Z" fill="#F4C233"/>
<path d="M42.7618 135.195H40.7109V134.373H45.6729V135.195H43.622V140.823H42.7618V135.195Z" fill="#F4C233"/>
<path d="M52.4493 138.464L51.2649 135.505H51.2462L50.0431 138.464H52.4493ZM50.9034 134.373H51.6826L54.4067 140.83H53.4031L52.7672 139.236H49.7377L49.1081 140.83H48.1045L50.9096 134.373H50.9034Z" fill="#F4C233"/>
<path d="M59.1266 134.373V138.332C59.1266 138.534 59.1515 138.743 59.2076 138.958C59.2637 139.173 59.351 139.375 59.4757 139.552C59.6004 139.736 59.7687 139.881 59.9681 140.001C60.1739 140.115 60.4232 140.172 60.7224 140.172C61.0216 140.172 61.271 140.115 61.4767 140.001C61.6824 139.887 61.8445 139.736 61.9691 139.552C62.0938 139.369 62.1873 139.173 62.2372 138.958C62.2933 138.743 62.3182 138.534 62.3182 138.332V134.373H63.1847V138.464C63.1847 138.844 63.1223 139.185 62.9977 139.489C62.873 139.792 62.6985 140.058 62.4741 140.286C62.2559 140.507 61.9941 140.684 61.6949 140.804C61.3956 140.924 61.0715 140.988 60.7224 140.988C60.3733 140.988 60.0492 140.924 59.75 140.804C59.4508 140.684 59.1889 140.507 58.9645 140.286C58.7464 140.058 58.5656 139.792 58.4409 139.489C58.3162 139.179 58.2539 138.838 58.2539 138.464V134.373H59.1141H59.1266Z" fill="#F4C233"/>
<path d="M68.7138 137.219H69.8483C70.0166 137.219 70.1849 137.206 70.347 137.174C70.509 137.149 70.6586 137.099 70.7895 137.023C70.9205 136.947 71.0202 136.846 71.1012 136.706C71.176 136.567 71.2197 136.39 71.2197 136.175C71.2197 135.96 71.1823 135.777 71.1012 135.644C71.0264 135.505 70.9205 135.404 70.7895 135.328C70.6586 135.252 70.5153 135.208 70.347 135.176C70.1786 135.151 70.0166 135.138 69.8483 135.138H68.7138V137.219ZM67.8535 134.373H70.0914C70.4966 134.373 70.8332 134.43 71.1012 134.544C71.363 134.658 71.575 134.797 71.7246 134.974C71.8804 135.145 71.9864 135.341 72.0425 135.556C72.1048 135.771 72.1298 135.979 72.1298 136.182C72.1298 136.384 72.0924 136.586 72.0238 136.776C71.9552 136.966 71.8493 137.143 71.7121 137.295C71.575 137.453 71.4129 137.579 71.2197 137.687C71.0264 137.794 70.8082 137.857 70.5714 137.883L72.3791 140.83H71.3007L69.6862 137.984H68.7262V140.83H67.866V134.373H67.8535Z" fill="#F4C233"/>
<path d="M80.0265 138.464L78.8421 135.505H78.8234L77.6203 138.464H80.0265ZM78.4805 134.373H79.2597L81.9838 140.83H80.9802L80.3444 139.236H77.3148L76.6853 140.83H75.6816L78.4868 134.373H78.4805Z" fill="#F4C233"/>
<path d="M85.9551 134.373H87.0896L90.5929 139.679H90.6116V134.373H91.4718V140.823H90.3747L86.834 135.524H86.8215V140.823H85.9551V134.373Z" fill="#F4C233"/>
<path d="M97.5827 135.195H95.5381V134.373H100.5V135.195H98.4492V140.823H97.5827V135.195Z" fill="#F4C233"/>
<path d="M112.983 135.72C112.983 135.505 112.908 135.34 112.765 135.214C112.622 135.087 112.435 135.03 112.21 135.03C111.986 135.03 111.786 135.094 111.618 135.226C111.45 135.359 111.369 135.543 111.369 135.789C111.369 135.897 111.387 136.004 111.425 136.099C111.462 136.194 111.512 136.289 111.574 136.384C111.637 136.472 111.705 136.561 111.78 136.637C111.849 136.712 111.924 136.788 111.998 136.864C112.104 136.801 112.216 136.738 112.335 136.662C112.453 136.586 112.559 136.51 112.653 136.415C112.746 136.327 112.827 136.226 112.89 136.112C112.952 135.998 112.983 135.871 112.983 135.726M111.786 137.787C111.662 137.863 111.531 137.939 111.406 138.028C111.275 138.11 111.163 138.205 111.063 138.312C110.964 138.414 110.876 138.534 110.814 138.666C110.752 138.799 110.72 138.945 110.72 139.109C110.72 139.274 110.752 139.413 110.82 139.552C110.882 139.691 110.976 139.811 111.088 139.912C111.2 140.013 111.331 140.096 111.468 140.153C111.612 140.209 111.755 140.241 111.911 140.241C112.067 140.241 112.21 140.216 112.347 140.165C112.485 140.115 112.609 140.051 112.728 139.975C112.846 139.9 112.952 139.811 113.052 139.716C113.152 139.621 113.239 139.52 113.326 139.413L111.786 137.787ZM115.776 140.829H114.616L113.837 139.975C113.569 140.304 113.282 140.557 112.977 140.734C112.678 140.911 112.31 141 111.886 141C111.525 141 111.213 140.943 110.951 140.842C110.689 140.734 110.471 140.595 110.303 140.418C110.134 140.241 110.004 140.045 109.923 139.824C109.841 139.602 109.798 139.368 109.798 139.134C109.798 138.9 109.835 138.704 109.916 138.521C109.991 138.338 110.097 138.167 110.234 138.015C110.365 137.863 110.521 137.724 110.695 137.604C110.87 137.484 111.057 137.376 111.25 137.288C111.045 137.067 110.87 136.845 110.727 136.611C110.577 136.377 110.508 136.105 110.508 135.789C110.508 135.543 110.558 135.328 110.646 135.138C110.739 134.948 110.864 134.79 111.02 134.664C111.175 134.537 111.356 134.436 111.562 134.373C111.768 134.303 111.98 134.271 112.21 134.271C112.441 134.271 112.64 134.303 112.846 134.36C113.046 134.423 113.22 134.512 113.37 134.632C113.519 134.752 113.638 134.904 113.725 135.087C113.812 135.271 113.856 135.479 113.856 135.726C113.856 135.928 113.819 136.112 113.737 136.276C113.663 136.441 113.557 136.592 113.432 136.731C113.307 136.871 113.164 136.991 113.008 137.098C112.852 137.206 112.69 137.301 112.534 137.389L113.794 138.717L114.591 137.395H115.57L114.336 139.33L115.782 140.835L115.776 140.829Z" fill="#F4C233"/>
<path d="M126.337 140.058H127.602C127.733 140.058 127.877 140.045 128.039 140.014C128.201 139.988 128.344 139.932 128.481 139.849C128.618 139.767 128.737 139.653 128.83 139.514C128.93 139.375 128.974 139.192 128.974 138.958C128.974 138.572 128.849 138.287 128.606 138.098C128.363 137.908 128.026 137.813 127.608 137.813H126.331V140.058H126.337ZM126.337 137.048H127.515C127.677 137.048 127.827 137.029 127.97 136.997C128.113 136.966 128.238 136.909 128.35 136.827C128.456 136.751 128.543 136.65 128.606 136.529C128.668 136.409 128.699 136.257 128.699 136.08C128.699 135.827 128.618 135.606 128.456 135.416C128.294 135.227 128.039 135.132 127.696 135.132H126.337V137.048ZM125.477 134.367H127.689C127.964 134.367 128.219 134.398 128.456 134.468C128.693 134.531 128.899 134.632 129.067 134.765C129.235 134.898 129.373 135.062 129.472 135.265C129.572 135.467 129.622 135.707 129.622 135.979C129.622 136.346 129.522 136.65 129.316 136.884C129.111 137.118 128.849 137.288 128.525 137.396V137.415C128.718 137.427 128.899 137.478 129.061 137.566C129.229 137.655 129.373 137.769 129.497 137.914C129.622 138.06 129.715 138.224 129.79 138.414C129.865 138.604 129.896 138.806 129.896 139.027C129.896 139.318 129.84 139.577 129.722 139.799C129.603 140.02 129.447 140.21 129.242 140.362C129.036 140.513 128.805 140.627 128.531 140.709C128.263 140.785 127.97 140.83 127.658 140.83H125.477V134.373V134.367Z" fill="#F4C233"/>
<path d="M137.824 138.464L136.64 135.505H136.621L135.418 138.464H137.824ZM136.278 134.373H137.058L139.782 140.83H138.778L138.142 139.236H135.113L134.483 140.83H133.479L136.285 134.373H136.278Z" fill="#F4C233"/>
<path d="M144.613 137.219H145.748C145.916 137.219 146.084 137.206 146.246 137.174C146.408 137.149 146.558 137.099 146.689 137.023C146.82 136.947 146.92 136.846 147.001 136.706C147.075 136.567 147.119 136.39 147.119 136.175C147.119 135.96 147.082 135.777 147.001 135.644C146.926 135.505 146.82 135.404 146.689 135.328C146.558 135.252 146.415 135.208 146.246 135.176C146.078 135.151 145.916 135.138 145.748 135.138H144.613V137.219ZM143.753 134.373H145.991C146.396 134.373 146.733 134.43 147.001 134.544C147.262 134.658 147.474 134.797 147.624 134.974C147.78 135.145 147.886 135.341 147.942 135.556C148.004 135.771 148.029 135.979 148.029 136.182C148.029 136.384 147.992 136.586 147.923 136.776C147.855 136.966 147.749 137.143 147.612 137.295C147.474 137.453 147.312 137.579 147.119 137.687C146.926 137.794 146.708 137.857 146.471 137.883L148.279 140.83H147.2L145.586 137.984H144.626V140.83H143.765V134.373H143.753Z" fill="#F4C233"/>
<path d="M70.6831 28.5193V21.0142H43.8613C43.8613 28.0288 49.0024 37.2753 59.1184 37.2753" stroke="#F4C233" stroke-width="1.25086"/>
<path d="M70.6831 46.031V53.5361H43.8613C43.8613 46.5215 49.0024 37.275 59.1184 37.275" stroke="#F4C233" stroke-width="1.25086"/>
<path d="M88.8206 27.8938V20.3887H116.965C116.965 27.9429 111.592 37.2752 101.016 37.2752" stroke="#F4C233" stroke-width="1.25086"/>
<path d="M88.196 46.5852L95.7012 46.5852L95.7012 74.104C88.6866 74.104 80.0655 69.2814 80.0655 59.1654" stroke="#F4C233" stroke-width="1.25086"/>
<path d="M71.3088 27.8934L63.8037 27.8934L63.8037 1C70.8183 0.999976 80.0648 6.14107 80.0648 16.2571" stroke="#F4C233" stroke-width="1.25086"/>
<path d="M71.3088 46.6568L63.8037 46.6568L63.8037 74.104C70.8183 74.104 80.0648 68.9629 80.0648 58.8469" stroke="#F4C233" stroke-width="1.25086"/>
<path d="M88.8205 46.031V53.5361H115.714C115.714 46.5215 110.573 37.275 100.457 37.275" stroke="#F4C233" stroke-width="1.25086"/>
<path d="M88.196 27.268L95.7012 27.268L95.7012 1C88.6866 0.999974 80.0655 6.20698 80.0655 16.323" stroke="#F4C233" stroke-width="1.25086"/>
<path d="M74.4359 37.2754H58.1748" stroke="#F4C233" stroke-width="1.25086"/>
<path d="M101.954 37.2754L85.6934 37.2754" stroke="#F4C233" stroke-width="1.25086"/>
<path d="M80.0645 31.6469L80.0645 16.0112" stroke="#F4C233" stroke-width="1.25086"/>
<path d="M80.0645 59.1654L80.0645 42.9043" stroke="#F4C233" stroke-width="1.25086"/>
<circle cx="80.0658" cy="37.2753" r="5.62885" stroke="#F4C233" stroke-width="1.25086"/>
</svg>
