<svg width="114" height="226" viewBox="0 0 114 226" fill="none" xmlns="http://www.w3.org/2000/svg">
<g clip-path="url(#clip0_957_1641)" filter="url(#filter0_d_957_1641)">
<path d="M113.952 0H-0.0478516V226H113.952V0Z" fill="#174B9C"/>
<path d="M113.952 0H-0.0478516" stroke="#8BA9D8"/>
<path d="M-0.0478614 226L-0.0478516 0" stroke="#8BA9D8"/>
<mask id="mask0_957_1641" style="mask-type:luminance" maskUnits="userSpaceOnUse" x="0" y="112" width="39" height="39">
<path d="M37.7803 113.117V150.266H0.25V113.117H37.7803Z" fill="white" stroke="white" stroke-width="0.500002"/>
</mask>
<g mask="url(#mask0_957_1641)">
<path d="M29.7356 121.265L40.9388 132.356L29.7356 143.447M29.7356 121.265L7.33521 143.441H7.32307L18.5263 154.531L29.7295 143.441L7.32914 121.265L18.5324 110.174M29.7356 121.265L18.5324 110.174M7.33521 143.447L-3.86802 132.356L7.33521 121.265M18.5324 110.174V154.525M-3.86802 132.35H40.9328M-8.62256 132.35L18.5324 105.467L45.6873 132.35L18.5324 159.232L-8.62256 132.35ZM24.0399 137.802H12.6605V126.537H24.0399V137.802Z" stroke="#8BA9D8" stroke-width="0.500002" stroke-miterlimit="10"/>
</g>
<path d="M113.927 113.06L94.7148 94.371M94.6965 94.3049L75.6055 113.12M75.6055 75.8443C75.6055 75.8443 83.05 76.7941 88.3025 81.8916H88.2964C93.5428 86.9892 94.6115 94.3109 94.6115 94.3109C94.6115 94.3109 87.1731 93.3612 81.9206 88.2636C76.6742 83.166 75.6055 75.8443 75.6055 75.8443ZM75.6055 75.8443L94.818 94.5394M94.8423 94.5995C94.8423 94.5995 95.8078 87.3078 101.012 82.1682C106.216 77.0285 113.696 75.9825 113.696 75.9825C113.696 75.9825 112.731 83.2742 107.527 88.4139C102.323 93.5535 94.8423 94.5995 94.8423 94.5995ZM94.8423 94.5995L113.927 75.7842M0.12793 187.967H114M0.12793 150.282H113.927M0.12793 112.868H114M0.12793 76.0727H114M0.12793 38.2317H114M75.6116 0V226M38.0428 0V226M81.2709 52.4664L75.5934 49.9056M88.8126 44.4534L85.4061 38.0514M81.2709 62.7758L75.5934 65.3366M88.8126 70.7888L85.9951 76.0787M108.602 52.4724L113.988 50.0439M101.06 44.4594L104.467 38.0574M108.602 62.7818L113.988 65.2103M101.06 70.7948L104.333 76.0847M94.9819 38.1355V43.2752M94.9819 72.1173V76.0847M75.3748 57.6962H80.4269M109.543 57.6962H113.994M75.4901 38.2257L84.7563 47.441M105.183 67.7591L113.557 76.0847M113.921 38.9411L105.286 47.5071M84.6896 67.9395L76.4738 76.0908M34.3995 178.445L37.6663 174.796V181.955L34.3995 178.439V178.445ZM34.3995 178.445C34.3995 178.445 28.2119 187.576 17.2637 187.576C6.31551 187.576 0.12793 178.445 0.12793 178.445C0.12793 178.445 6.31551 169.314 17.2637 169.314C28.2119 169.314 34.3995 178.445 34.3995 178.445ZM3.39478 159.804L0.12793 156.155V163.314L3.39478 159.798V159.804ZM3.39478 159.804C3.39478 159.804 9.58236 168.935 20.5306 168.935C31.4788 168.935 37.6663 159.804 37.6663 159.804C37.6663 159.804 31.4788 150.673 20.5306 150.673C9.58236 150.673 3.39478 159.804 3.39478 159.804ZM59.1741 158.325L62.5624 163.615M45.3659 162.082L53.5512 160.946M46.2039 173.035C46.2039 164.643 52.7861 157.844 60.9047 157.844C69.0232 157.844 75.6055 164.643 75.6055 173.035V187.985M62.9875 126.886H50.7762M62.9692 120.694H51.007M71.7618 143.411H59.7692M71.95 137.219H59.7692M54.0067 143.417H41.7954M53.9884 137.225H41.8076M55.2697 90.4818C55.2697 90.4818 56.9942 91.7261 58.7248 90.4757M56.9517 87.398C56.1623 87.6625 53.952 88.6964 53.1808 89.1172C49.5739 91.0829 47.2119 95.3389 47.2119 100.527C47.2119 105.408 49.5679 108.335 52.9805 110.253C54.2435 110.962 55.6522 112.633 57.1338 112.633C58.6155 112.633 60.0121 110.956 61.2751 110.253C64.6816 108.335 67.0498 105.414 67.0498 100.527C67.0498 95.3809 64.3051 90.9146 60.6011 89.1593C59.6538 88.7084 58.0204 87.6805 56.9456 87.398H56.9517ZM56.9517 87.398V76.1028M68.8046 76.4274C68.8046 76.4274 64.1351 76.9804 60.8379 79.974H60.8318C57.5346 82.9677 56.8667 87.2597 56.8667 87.2597C56.8667 87.2597 61.5423 86.7067 64.8395 83.7131C68.1367 80.7194 68.8046 76.4274 68.8046 76.4274ZM68.8046 76.4274L56.7452 87.392M45.0562 76.4274C45.0562 76.4274 49.7318 76.9804 53.029 79.974C56.3202 82.9677 56.9942 87.2597 56.9942 87.2597C56.9942 87.2597 52.3186 86.7067 49.0214 83.7131C45.7242 80.7194 45.0562 76.4274 45.0562 76.4274ZM45.0562 76.4274L57.1217 87.392M47.5823 34.4386L51.262 37.6787H44.0361L47.5823 34.4386ZM47.5823 34.4386C47.5823 34.4386 38.3646 28.3071 38.3646 17.4628L38.3586 17.4688C38.3586 6.62443 47.5762 0.492925 47.5762 0.492925C47.5762 0.492925 56.7999 6.61842 56.7999 17.4628C56.7999 28.3071 47.5823 34.4386 47.5823 34.4386ZM66.4 3.72098L70.0798 0.480902H62.8478L66.394 3.72098H66.4ZM66.4 3.72098C66.4 3.72098 57.1824 9.85248 57.1824 20.6968C57.1824 31.5412 66.4 37.6727 66.4 37.6727C66.4 37.6727 75.6177 31.5412 75.6177 20.6968C75.6177 9.85248 66.4 3.72098 66.4 3.72098ZM19.5712 45.0906H36.883M28.2301 62.3189V68.7991M28.2301 62.3189C36.3547 62.3189 37.5267 45.5234 37.5267 38.2317H18.9336C18.9336 45.5234 20.1055 62.3189 28.2301 62.3189ZM0.826234 45.0906H18.1381M9.48521 62.3189V68.7991M9.48521 62.3189C17.6098 62.3189 18.7818 45.5234 18.7818 38.2317H0.188652C0.188652 45.5234 1.36059 62.3189 9.48521 62.3189ZM101.686 19.9514C101.686 19.9514 102.056 13.8921 106.258 12.6658C106.258 12.6658 97.1619 15.6353 90.6403 22.1756M102.323 14.2768C102.323 14.2768 109.167 11.2531 113.982 10.0088M100.192 34.9676C100.192 34.9676 101.771 33.9818 103.781 34.9676M79.4189 31.6614C79.4189 31.6614 81.866 32.1784 82.0178 34.4807M18.9579 19.0918H6.55233C5.70222 19.0918 0.267591 19.1459 0.267591 12.6598C0.267591 8.8486 5.7508 5.71071 9.81311 9.90057C15.7882 16.0621 18.9518 19.0918 18.9518 19.0918H18.9579ZM18.9579 19.1579H6.55233C5.70222 19.1579 0.212941 19.1459 0.212941 25.6261C0.212941 29.4372 5.22859 32.9117 9.81311 28.3492C15.8914 22.2958 18.9518 19.1579 18.9518 19.1579H18.9579ZM19.0125 19.0978H31.418C32.2681 19.0978 37.6603 19.0798 37.6603 12.6056C37.6603 8.7945 32.4442 5.34403 28.1573 9.90659C22.2854 16.1583 19.0186 19.0978 19.0186 19.0978H19.0125ZM19.0125 19.1579H31.418C32.2681 19.1579 37.6603 19.0497 37.6603 25.5299C37.6603 29.341 32.511 32.5451 28.1573 28.3552C21.9818 22.404 19.0186 19.164 19.0186 19.164L19.0125 19.1579ZM18.9579 18.9776V6.68454C18.9579 5.84296 19.2858 0.559049 12.7399 0.559049C8.89013 0.559049 5.04035 5.332 9.67952 9.92462C15.776 15.9599 18.9579 18.9776 18.9579 18.9776ZM19.0125 18.9776V6.68454C19.0125 5.84296 19.304 0.559049 25.8498 0.559049C29.6996 0.559049 32.7661 5.332 28.2908 9.92462C22.3036 16.0681 19.0125 18.9776 19.0125 18.9776ZM19.0125 19.3443V31.6313C19.0125 32.4729 18.9518 37.6847 25.4916 37.6847C29.3413 37.6847 32.8936 32.9057 28.2908 28.3913C22.164 22.386 19.0125 19.3383 19.0125 19.3383V19.3443ZM18.9579 19.3443V31.6313C18.9579 32.4729 19.0186 37.6847 12.4788 37.6847C8.62903 37.6847 4.97355 32.9057 9.67952 28.3913C15.8671 22.4461 18.9579 19.3383 18.9579 19.3383V19.3443ZM101.23 107.013C106.483 112.11 113.927 113.054 113.927 113.054C113.927 113.054 112.859 105.732 107.612 100.635C102.366 95.5372 94.9212 94.5935 94.9212 94.5935C94.9212 94.5935 95.9899 101.915 101.236 107.013H101.23ZM88.5211 106.736C93.725 101.597 94.6905 94.3049 94.6905 94.3049C94.6905 94.3049 87.2095 95.3509 82.0056 100.491C76.8017 105.63 75.8363 112.922 75.8363 112.922C75.8363 112.922 83.3172 111.876 88.5211 106.736ZM110.642 160.934C110.642 164.781 107.491 167.907 103.604 167.907C99.7183 167.907 96.5668 164.787 96.5668 160.934C96.5668 157.081 99.7183 153.961 103.604 153.961C107.491 153.961 110.642 157.081 110.642 160.934ZM103.155 161.379C103.155 161.379 102.372 163.609 101.819 164.511C101.789 164.565 101.752 164.613 101.716 164.661C101.674 164.715 101.637 164.763 101.601 164.799C101.078 165.322 100.222 165.322 99.7001 164.799C99.1778 164.276 99.1778 163.435 99.7001 162.918C99.7365 162.882 99.7851 162.846 99.8397 162.809C99.9004 162.767 99.9612 162.725 100.022 162.689C100.951 162.148 103.155 161.379 103.155 161.379ZM104.054 160.483C104.054 160.483 104.837 158.253 105.39 157.351C105.42 157.297 105.45 157.249 105.493 157.195C105.535 157.141 105.572 157.093 105.608 157.057C106.131 156.534 106.987 156.534 107.509 157.057C108.031 157.58 108.031 158.421 107.509 158.944C107.472 158.98 107.424 159.016 107.369 159.052C107.309 159.094 107.248 159.137 107.187 159.173C106.258 159.714 104.054 160.483 104.054 160.483ZM103.155 160.483C103.155 160.483 100.902 159.708 99.9976 159.161C99.9429 159.131 99.8944 159.094 99.8397 159.058C99.7851 159.016 99.7365 158.98 99.7001 158.944C99.1778 158.421 99.1778 157.58 99.7001 157.057C100.222 156.534 101.078 156.534 101.601 157.057C101.637 157.093 101.674 157.141 101.71 157.195C101.752 157.255 101.795 157.315 101.831 157.375C102.378 158.295 103.155 160.483 103.155 160.483ZM104.054 161.379C104.054 161.379 106.307 162.154 107.217 162.701C107.272 162.731 107.321 162.767 107.375 162.803C107.43 162.846 107.479 162.882 107.515 162.918C108.037 163.441 108.037 164.282 107.515 164.799C106.993 165.322 106.137 165.322 105.614 164.799C105.578 164.763 105.542 164.721 105.505 164.661C105.463 164.601 105.42 164.541 105.384 164.481C104.837 163.561 104.06 161.373 104.06 161.373L104.054 161.379ZM92.4195 160.934C92.4195 164.781 89.268 167.907 85.3818 167.907C81.4956 167.907 78.3441 164.787 78.3441 160.934C78.3441 157.081 81.4956 153.961 85.3818 153.961C89.268 153.961 92.4195 157.081 92.4195 160.934ZM84.9324 161.379C84.9324 161.379 84.1491 163.609 83.5965 164.511C83.5662 164.565 83.5298 164.613 83.4933 164.661C83.4508 164.715 83.4144 164.763 83.378 164.799C82.8557 165.322 81.9996 165.322 81.4773 164.799C80.9551 164.276 80.9551 163.435 81.4773 162.918C81.5138 162.882 81.5624 162.846 81.617 162.809C81.6777 162.767 81.7384 162.725 81.7992 162.689C82.7221 162.148 84.9324 161.379 84.9324 161.379ZM85.8311 160.483C85.8311 160.483 86.6144 158.253 87.167 157.351C87.1974 157.297 87.2277 157.249 87.2702 157.195C87.3127 157.141 87.3492 157.093 87.3856 157.057C87.9139 156.534 88.764 156.534 89.2862 157.057C89.8084 157.58 89.8084 158.421 89.2862 158.944C89.2498 158.98 89.2012 159.016 89.1526 159.052C89.0919 159.094 89.0312 159.137 88.9705 159.173C88.0414 159.714 85.8372 160.483 85.8372 160.483H85.8311ZM84.9324 160.483C84.9324 160.483 82.6796 159.708 81.7688 159.161C81.7142 159.131 81.6656 159.094 81.617 159.058C81.5624 159.016 81.5138 158.98 81.4773 158.944C80.9551 158.421 80.9551 157.58 81.4773 157.057C82.0056 156.534 82.8557 156.534 83.378 157.057C83.4144 157.093 83.4508 157.141 83.4872 157.195C83.5358 157.255 83.5723 157.315 83.6087 157.375C84.1552 158.295 84.9324 160.483 84.9324 160.483ZM85.8311 161.379C85.8311 161.379 88.0839 162.154 88.9947 162.701C89.0494 162.731 89.098 162.767 89.1466 162.803C89.2012 162.846 89.2498 162.882 89.2862 162.918C89.8145 163.441 89.8145 164.282 89.2862 164.799C88.764 165.322 87.9078 165.322 87.3856 164.799C87.3492 164.763 87.3127 164.721 87.2763 164.661C87.2338 164.601 87.1913 164.541 87.1549 164.481C86.6084 163.561 85.8311 161.373 85.8311 161.373V161.379ZM110.636 177.717C110.636 181.565 107.485 184.69 103.598 184.69C99.7122 184.69 96.5607 181.571 96.5607 177.717C96.5607 173.864 99.7122 170.744 103.598 170.744C107.485 170.744 110.636 173.864 110.636 177.717ZM103.149 178.162C103.149 178.162 102.366 180.392 101.813 181.294C101.783 181.348 101.746 181.396 101.71 181.444C101.667 181.499 101.631 181.547 101.595 181.583C101.072 182.106 100.216 182.106 99.694 181.583C99.1718 181.066 99.1718 180.218 99.694 179.701C99.7304 179.665 99.779 179.629 99.8336 179.593C99.8944 179.551 99.9551 179.509 100.016 179.473C100.945 178.932 103.149 178.162 103.149 178.162ZM104.048 177.267C104.048 177.267 104.831 175.036 105.384 174.135C105.414 174.081 105.444 174.032 105.487 173.978C105.529 173.924 105.566 173.876 105.602 173.84C106.124 173.317 106.981 173.317 107.503 173.84C108.025 174.363 108.025 175.205 107.503 175.722C107.466 175.758 107.418 175.794 107.363 175.83C107.302 175.872 107.242 175.914 107.181 175.95C106.252 176.491 104.048 177.261 104.048 177.261V177.267ZM103.149 177.267C103.149 177.267 100.896 176.491 99.9915 175.944C99.9369 175.914 99.8883 175.878 99.8336 175.842C99.779 175.8 99.7304 175.764 99.694 175.728C99.1718 175.205 99.1718 174.363 99.694 173.846C100.216 173.323 101.072 173.323 101.595 173.846C101.631 173.882 101.667 173.93 101.704 173.984C101.746 174.045 101.789 174.105 101.825 174.165C102.372 175.084 103.149 177.273 103.149 177.273V177.267ZM104.048 178.162C104.048 178.162 106.301 178.938 107.211 179.485C107.266 179.515 107.315 179.551 107.369 179.587C107.424 179.629 107.472 179.665 107.509 179.701C108.031 180.224 108.031 181.066 107.509 181.583C106.987 182.106 106.131 182.106 105.608 181.583C105.572 181.547 105.535 181.499 105.499 181.444C105.457 181.384 105.414 181.324 105.378 181.264C104.831 180.344 104.054 178.156 104.054 178.156L104.048 178.162ZM92.4134 177.717C92.4134 181.565 89.2619 184.69 85.3757 184.69C81.4895 184.69 78.338 181.571 78.338 177.717C78.338 173.864 81.4895 170.744 85.3757 170.744C89.2619 170.744 92.4134 173.864 92.4134 177.717ZM84.9264 178.162C84.9264 178.162 84.1431 180.392 83.5905 181.294C83.5601 181.348 83.5237 181.396 83.4872 181.444C83.4447 181.499 83.4083 181.547 83.3719 181.583C82.8497 182.106 81.9935 182.106 81.4713 181.583C80.9491 181.066 80.9491 180.218 81.4713 179.701C81.5077 179.665 81.5563 179.629 81.6109 179.593C81.6717 179.551 81.7324 179.509 81.7931 179.473C82.7161 178.932 84.9264 178.162 84.9264 178.162ZM85.8251 177.267C85.8251 177.267 86.6084 175.036 87.1609 174.135C87.1913 174.081 87.2217 174.032 87.2642 173.978C87.3067 173.924 87.3431 173.876 87.3795 173.84C87.9078 173.317 88.7579 173.317 89.2801 173.84C89.8023 174.363 89.8023 175.205 89.2801 175.722C89.2437 175.758 89.1951 175.794 89.1466 175.83C89.0858 175.872 89.0251 175.914 88.9644 175.95C88.0353 176.491 85.8311 177.261 85.8311 177.261L85.8251 177.267ZM84.9264 177.267C84.9264 177.267 82.6736 176.491 81.7627 175.944C81.7081 175.914 81.6595 175.878 81.6109 175.842C81.5563 175.8 81.5077 175.764 81.4713 175.728C80.9491 175.205 80.9491 174.363 81.4713 173.846C81.9996 173.323 82.8497 173.323 83.3719 173.846C83.4083 173.882 83.4447 173.93 83.4812 173.984C83.5298 174.045 83.5662 174.105 83.6026 174.165C84.1491 175.084 84.9264 177.273 84.9264 177.273V177.267ZM85.8251 178.162C85.8251 178.162 88.0778 178.938 88.9887 179.485C89.0433 179.515 89.0919 179.551 89.1405 179.587C89.1951 179.629 89.2437 179.665 89.2801 179.701C89.8084 180.224 89.8084 181.066 89.2801 181.583C88.7579 182.106 87.9017 182.106 87.3795 181.583C87.3431 181.547 87.3067 181.499 87.2702 181.444C87.2277 181.384 87.1852 181.324 87.1488 181.264C86.6023 180.344 85.8251 178.156 85.8251 178.156V178.162ZM102.742 200.182C105.754 200.182 108.195 203.013 108.195 206.505C108.195 209.998 105.754 212.835 102.742 212.835V200.182ZM87.2763 212.835C84.2645 212.835 81.8235 210.004 81.8235 206.505C81.8235 203.007 84.2645 200.182 87.2763 200.182V212.835ZM98.4977 206.626C98.4977 208.549 96.919 210.112 94.9759 210.112C93.0328 210.112 91.454 208.549 91.454 206.626C91.454 204.702 93.0267 203.139 94.9759 203.139C96.9251 203.139 98.4977 204.702 98.4977 206.626ZM81.0766 193.13L80.3965 190.347L79.3156 191.483L78.2348 192.619L81.0827 193.136L81.0766 193.13ZM81.2527 193.299C81.2527 193.299 80.779 195.968 82.7221 197.789C84.6592 199.61 87.3249 198.997 87.3249 198.997C87.3249 198.997 87.7985 196.328 85.8554 194.513C83.9184 192.692 81.2527 193.305 81.2527 193.305V193.299ZM108.954 193.202L109.622 190.347L110.709 191.483L111.79 192.619L108.954 193.208V193.202ZM108.772 193.299C108.772 193.299 109.246 195.968 107.302 197.789C105.365 199.61 102.7 198.997 102.7 198.997C102.7 198.997 102.226 196.328 104.169 194.513C106.106 192.692 108.772 193.305 108.772 193.305V193.299ZM81.0159 220.229L80.3965 222.916L79.3156 221.78L78.2348 220.644L81.0219 220.223L81.0159 220.229ZM81.2527 219.965C81.2527 219.965 80.779 217.296 82.7221 215.474C84.6592 213.653 87.3249 214.266 87.3249 214.266C87.3249 214.266 87.7985 216.935 85.8554 218.756C83.9184 220.578 81.2527 219.965 81.2527 219.965ZM108.821 220.229L109.622 222.916L110.709 221.78L111.79 220.644L108.821 220.223V220.229ZM108.772 219.965C108.772 219.965 109.246 217.296 107.302 215.474C105.365 213.653 102.7 214.266 102.7 214.266C102.7 214.266 102.226 216.935 104.169 218.756C106.106 220.578 108.772 219.965 108.772 219.965ZM101.4 214.17C101.4 217.151 98.5403 219.574 95.0123 219.574C91.4844 219.574 88.6243 217.157 88.6243 214.17H101.4ZM88.6243 198.847C88.6243 195.865 91.4844 193.443 95.0123 193.443C98.5403 193.443 101.4 195.859 101.4 198.847H88.6243ZM107.333 57.6842C107.333 64.4409 101.801 69.9232 94.9819 69.9232C88.1629 69.9232 82.6311 64.4469 82.6311 57.6842C82.6311 50.9215 88.1629 45.4513 94.9819 45.4513C101.801 45.4513 107.333 50.9275 107.333 57.6842ZM109.537 57.6842C109.537 65.6492 103.022 72.1053 94.9819 72.1053C86.9423 72.1053 80.4269 65.6492 80.4269 57.6842C80.4269 49.7193 86.9423 43.2632 94.9819 43.2632C103.022 43.2632 109.537 49.7193 109.537 57.6842ZM24.1435 94.4793C24.1435 97.3827 21.7632 99.7451 18.8303 99.7451C15.8975 99.7451 13.5172 97.3887 13.5172 94.4793C13.5172 91.5698 15.8975 89.2134 18.8303 89.2134C21.7632 89.2134 24.1435 91.5698 24.1435 94.4793ZM26.2384 94.4793C26.2384 98.5309 22.923 101.813 18.8364 101.813C14.7498 101.813 11.4283 98.5309 11.4283 94.4793C11.4283 90.4277 14.7437 87.1455 18.8364 87.1455C22.9291 87.1455 26.2384 90.4277 26.2384 94.4793ZM18.8303 110.361C14.9684 110.361 11.823 107.247 11.823 103.418V101.422H9.80703C5.94511 101.422 2.7997 98.3084 2.7997 94.4793C2.7997 90.6501 5.94511 87.5362 9.80703 87.5362H11.823V85.5405C11.823 81.7113 14.9684 78.5975 18.8303 78.5975C22.6923 78.5975 25.8377 81.7113 25.8377 85.5405V87.5362H27.8536C31.7216 87.5362 34.861 90.6501 34.861 94.4793C34.861 98.3084 31.7156 101.422 27.8536 101.422H25.8377V103.418C25.8377 107.247 22.6923 110.361 18.8303 110.361ZM9.80703 103.418C4.82175 103.418 0.783729 99.4145 0.783729 94.4793C0.783729 89.544 4.82175 85.5405 9.80703 85.5405C9.80703 80.6052 13.8511 76.6017 18.8303 76.6017C23.8096 76.6017 27.8536 80.6052 27.8536 85.5405C32.8389 85.5405 36.877 89.544 36.877 94.4793C36.877 99.4145 32.8389 103.418 27.8536 103.418C27.8536 108.353 23.8156 112.357 18.8303 112.357C13.8451 112.357 9.80703 108.353 9.80703 103.418ZM6.94095 176.629C6.94095 178.126 8.16754 179.34 9.67952 179.34C11.1915 179.34 12.4181 178.126 12.4181 176.629C12.4181 175.133 11.1915 173.912 9.67952 173.912C8.16754 173.912 6.94095 175.127 6.94095 176.629ZM8.18575 176.629C8.18575 177.447 8.8537 178.108 9.67952 178.108C10.5053 178.108 11.1733 177.447 11.1733 176.629C11.1733 175.812 10.5053 175.151 9.67952 175.151C8.8537 175.151 8.18575 175.812 8.18575 176.629ZM24.7568 158.103C24.7568 159.599 25.9834 160.82 27.4954 160.82C29.0074 160.82 30.234 159.605 30.234 158.103C30.234 156.6 29.0074 155.386 27.4954 155.386C25.9834 155.386 24.7568 156.6 24.7568 158.103ZM26.0016 158.103C26.0016 158.92 26.6696 159.581 27.4954 159.581C28.3212 159.581 28.9892 158.92 28.9892 158.103C28.9892 157.285 28.3212 156.624 27.4954 156.624C26.6696 156.624 26.0016 157.285 26.0016 158.103ZM69.5394 219.177H65.4406V215.114H69.5394V219.177ZM47.983 219.177H43.8843V215.114H47.983V219.177ZM69.5394 198.565H65.4406V194.501H69.5394V198.565ZM47.983 198.565H43.8843V194.501H47.983V198.565ZM53.8791 206.415C53.8791 204.774 55.2272 203.434 56.891 203.434C58.5547 203.434 59.8967 204.768 59.8967 206.415C59.8967 208.062 58.5487 209.397 56.891 209.397C55.2332 209.397 53.8791 208.062 53.8791 206.415ZM63.5036 212.751L63.4854 212.871L63.3639 212.889C63.2911 212.901 61.5909 213.106 60.261 211.789C58.9312 210.473 59.1437 208.784 59.1498 208.712L59.168 208.591L59.2895 208.573C59.3623 208.561 61.0626 208.357 62.3924 209.673C63.7222 210.99 63.5097 212.679 63.5036 212.751ZM51.3835 209.673C52.7133 208.357 54.4135 208.561 54.4864 208.573L54.6078 208.591L54.626 208.712C54.6382 208.784 54.8446 210.467 53.5148 211.789C52.185 213.106 50.4848 212.901 50.4119 212.889L50.2905 212.871L50.2722 212.751C50.2601 212.679 50.0536 210.996 51.3835 209.673ZM62.3924 203.157C61.0626 204.474 59.3623 204.269 59.2895 204.257L59.168 204.239L59.1498 204.119C59.1377 204.047 58.9312 202.364 60.261 201.041C61.5909 199.725 63.2911 199.929 63.3639 199.941L63.4854 199.959L63.5036 200.079C63.5157 200.152 63.7222 201.841 62.3924 203.157ZM50.2722 200.079L50.2905 199.959L50.4119 199.941C50.4848 199.929 52.185 199.725 53.5148 201.041C54.8446 202.358 54.6382 204.047 54.626 204.119L54.6078 204.239L54.4864 204.257C54.4135 204.269 52.7133 204.474 51.3835 203.157C50.0536 201.841 50.2662 200.152 50.2722 200.079ZM40.2288 206.836L40.077 206.638L40.2288 206.445C40.3199 206.331 42.4634 203.608 46.2828 203.608C50.1022 203.608 52.2518 206.331 52.3429 206.445L52.4947 206.638L52.3429 206.836C52.2518 206.95 50.1083 209.673 46.2828 209.673C42.4573 209.673 40.3138 206.95 40.2288 206.836ZM61.433 206.836L61.2812 206.638L61.433 206.445C61.5241 206.331 63.6675 203.608 67.493 203.608C71.3185 203.608 73.462 206.331 73.5531 206.445L73.7049 206.638L73.5531 206.836C73.462 206.95 71.3185 209.673 67.493 209.673C63.6675 209.673 61.5241 206.95 61.433 206.836ZM56.6906 223.145C56.5752 223.054 53.8245 220.932 53.8245 217.145C53.8245 213.358 56.5752 211.236 56.6906 211.146L56.891 210.996L57.0853 211.146C57.2006 211.236 59.9514 213.358 59.9514 217.145C59.9514 220.932 57.2006 223.054 57.0853 223.145L56.891 223.295L56.6906 223.145ZM56.6906 202.141C56.5752 202.051 53.8245 199.929 53.8245 196.142C53.8245 192.355 56.5752 190.227 56.6906 190.143L56.891 189.992L57.0853 190.143C57.2006 190.233 59.9514 192.355 59.9514 196.142C59.9514 199.929 57.2006 202.057 57.0853 202.141L56.891 202.292L56.6906 202.141ZM66.6065 165.653C67.6145 167.462 67.4809 169.5 66.2968 170.203C65.1127 170.907 63.3336 170.011 62.3256 168.202C61.3115 166.392 61.4512 164.354 62.6353 163.651C63.8193 162.948 65.5924 163.843 66.6065 165.653ZM42.1719 165.244C40.1802 165.599 38.3768 164.757 38.146 163.368C37.9153 161.98 39.3423 160.567 41.334 160.213C43.3256 159.858 45.1291 160.699 45.3598 162.088C45.5906 163.477 44.1636 164.889 42.1719 165.244ZM59.5142 157.532C59.5142 157.532 56.2352 158.938 52.9258 156.966C49.6164 154.995 49.161 151.352 49.161 151.352C49.161 151.352 52.44 149.945 55.7494 151.917C59.0587 153.889 59.5142 157.532 59.5142 157.532ZM46.2039 172.728C46.2039 172.728 49.0274 175.451 49.0274 180.278C49.0274 185.105 46.2039 187.828 46.2039 187.828C46.2039 187.828 43.3803 185.105 43.3803 180.278C43.3803 175.451 46.2039 172.728 46.2039 172.728ZM53.5512 160.952C53.5512 160.952 56.8181 162.389 57.7654 166.212C58.7126 170.035 56.5145 172.914 56.5145 172.914C56.5145 172.914 53.2476 171.478 52.3004 167.655C51.3531 163.831 53.5512 160.952 53.5512 160.952ZM96.8704 131.942C96.8704 130.914 96.0264 130.078 94.988 130.078C93.9497 130.078 93.1056 130.914 93.1056 131.942C93.1056 132.969 93.9497 133.805 94.988 133.805C96.0264 133.805 96.8704 132.969 96.8704 131.942ZM113.52 131.942C110.915 129.928 107.983 128.864 104.983 128.864C102.481 128.864 100.028 129.603 97.7691 131.016H106.707L107.636 131.942L106.707 132.861H97.7691C100.028 134.274 102.481 135.013 104.983 135.013C107.983 135.013 110.915 133.955 113.52 131.936V131.942ZM98.0909 141.842C98.0909 139.365 97.344 136.937 95.9171 134.695V143.549L94.988 144.469L94.059 143.549V134.695C92.632 136.931 91.8851 139.359 91.8851 141.842C91.8851 144.812 92.9538 147.715 94.988 150.3C97.0222 147.715 98.0909 144.812 98.0909 141.842ZM84.9932 135.019C87.4949 135.019 89.9481 134.28 92.2069 132.867H83.2686L82.3396 131.948L83.2686 131.022H92.2069C89.9481 129.609 87.4949 128.87 84.9932 128.87C81.9935 128.87 79.0606 129.928 76.4556 131.948C79.0606 133.961 81.9935 135.025 84.9932 135.025V135.019ZM94.988 113.583C97.0222 116.168 98.0909 119.071 98.0909 122.041C98.0909 124.518 97.344 126.946 95.9171 129.182V120.328L94.988 119.402L94.059 120.328V129.182C92.632 126.946 91.8851 124.518 91.8851 122.041C91.8851 119.071 92.9538 116.162 94.988 113.583ZM103.932 140.802V139.498L100.593 136.192C101.813 136.57 103.058 136.793 104.327 136.847C106.404 138.939 107.691 141.71 108.092 144.92C104.849 144.523 102.05 143.249 99.9369 141.193C99.8822 139.943 99.6575 138.704 99.275 137.496L102.615 140.808H103.932V140.802ZM87.3552 140.802L90.695 137.496C90.3124 138.704 90.0877 139.943 90.0331 141.193C87.92 143.249 85.1207 144.529 81.8842 144.92C82.2849 141.71 83.5723 138.939 85.649 136.847C86.912 136.793 88.1628 136.57 89.3834 136.192L86.0436 139.498V140.802H87.3613H87.3552ZM85.6429 127.03C86.9059 127.084 88.1568 127.307 89.3773 127.686L86.0376 124.373V123.069H87.3552L90.695 126.375C90.3124 125.167 90.0877 123.929 90.0331 122.678C87.92 120.622 85.1207 119.342 81.8842 118.951C82.2849 122.161 83.5723 124.932 85.649 127.024L85.6429 127.03ZM99.275 126.381L102.615 123.075H103.932V124.379L100.593 127.686C101.813 127.307 103.058 127.084 104.327 127.03C106.404 124.938 107.691 122.167 108.092 118.957C104.849 119.354 102.05 120.628 99.9369 122.684C99.8822 123.935 99.6575 125.173 99.275 126.381ZM63.6433 123.802C63.6433 127.764 60.6193 130.98 56.8849 130.98C53.1505 130.98 50.1265 127.77 50.1265 123.802C50.1265 119.835 53.1505 116.631 56.8849 116.631C60.6193 116.631 63.6433 119.841 63.6433 123.802ZM65.8596 123.808C65.8596 129.074 61.8398 133.342 56.8788 133.342C51.9178 133.342 47.898 129.074 47.898 123.808C47.898 118.542 51.9178 114.28 56.8788 114.28C61.8398 114.28 65.8596 118.548 65.8596 123.808ZM72.618 140.327C72.618 144.289 69.594 147.499 65.8596 147.499C62.1252 147.499 59.1012 144.289 59.1012 140.327C59.1012 136.366 62.1252 133.156 65.8596 133.156C69.594 133.156 72.618 136.366 72.618 140.327ZM74.8404 140.333C74.8404 145.599 70.8206 149.861 65.8596 149.861C60.8986 149.861 56.8788 145.593 56.8788 140.333C56.8788 135.073 60.8986 130.799 65.8596 130.799C70.8206 130.799 74.8404 135.067 74.8404 140.333ZM54.6625 140.333C54.6625 144.295 51.6385 147.505 47.9041 147.505C44.1697 147.505 41.1457 144.295 41.1457 140.333C41.1457 136.372 44.1697 133.162 47.9041 133.162C51.6385 133.162 54.6625 136.372 54.6625 140.333ZM56.8788 140.339C56.8788 145.605 52.859 149.867 47.898 149.867C42.937 149.867 38.9172 145.599 38.9172 140.339C38.9172 135.079 42.937 130.805 47.898 130.805C52.859 130.805 56.8788 135.073 56.8788 140.339ZM2.9758 221.666C2.99401 221.552 3.40085 218.835 5.37432 216.893C7.34779 214.957 10.0803 214.585 10.1957 214.573L10.3839 214.549L10.3596 214.729C10.3414 214.843 9.92848 217.56 7.96108 219.502C5.98761 221.437 3.25512 221.81 3.13975 221.822L2.95151 221.846L2.9758 221.666ZM17.3184 221.774C17.203 221.756 14.4583 221.353 12.5031 219.4C10.5478 217.446 10.1714 214.741 10.1592 214.627L10.1349 214.44L10.3171 214.464C10.4325 214.482 13.1771 214.891 15.1324 216.839C17.0876 218.792 17.4641 221.498 17.4762 221.618L17.5005 221.804L17.3184 221.78V221.774ZM10.1835 214.591C10.2017 214.476 10.6086 211.759 12.582 209.818C14.5555 207.882 17.288 207.509 17.4034 207.497L17.5916 207.473L17.5673 207.654C17.5491 207.768 17.1423 210.485 15.1688 212.427C13.1953 214.362 10.4628 214.735 10.3475 214.747L10.1592 214.771L10.1835 214.585V214.591ZM10.2199 214.855C10.1046 214.837 7.35993 214.434 5.40468 212.481C3.44943 210.527 3.07295 207.822 3.06081 207.708L3.03652 207.521L3.21868 207.545C3.33406 207.563 6.0787 207.966 8.03395 209.92C9.9892 211.873 10.3657 214.579 10.3778 214.693L10.4021 214.879L10.2139 214.855H10.2199ZM19.7533 221.666C19.7715 221.552 20.1844 218.835 22.1518 216.893C24.1253 214.957 26.8578 214.585 26.9732 214.573L27.1614 214.549L27.1371 214.729C27.1189 214.843 26.7121 217.56 24.7386 219.502C22.7651 221.437 20.0326 221.81 19.9173 221.822L19.729 221.846L19.7533 221.666ZM34.0959 221.774C33.9805 221.756 31.2359 221.353 29.2806 219.4C27.3254 217.446 26.9489 214.741 26.9367 214.627L26.9125 214.44L27.0946 214.464C27.21 214.482 29.9546 214.891 31.9099 216.839C33.8651 218.792 34.2416 221.498 34.2538 221.618L34.278 221.804L34.0959 221.78V221.774ZM26.961 214.591C26.9792 214.476 27.3861 211.759 29.3596 209.818C31.333 207.882 34.0655 207.509 34.1809 207.497L34.3691 207.473L34.3448 207.654C34.3266 207.768 33.9137 210.485 31.9463 212.427C29.9728 214.362 27.2404 214.735 27.125 214.747L26.9367 214.771L26.961 214.585V214.591ZM26.9975 214.855C26.8821 214.837 24.1375 214.434 22.1822 212.481C20.2269 210.527 19.8505 207.822 19.8383 207.708L19.814 207.521L19.9962 207.545C20.1116 207.563 22.8562 207.966 24.8115 209.92C26.7667 211.873 27.1432 214.579 27.1553 214.693L27.1796 214.879L26.9914 214.855H26.9975ZM2.9758 205.892C2.99401 205.778 3.40085 203.061 5.37432 201.119C7.34779 199.184 10.0803 198.811 10.1957 198.799L10.3839 198.775L10.3596 198.955C10.3414 199.069 9.92848 201.787 7.96108 203.728C5.98761 205.664 3.25512 206.037 3.13975 206.049L2.95151 206.073L2.9758 205.886V205.892ZM17.3184 206C17.203 205.982 14.4583 205.574 12.5031 203.626C10.5478 201.672 10.1714 198.967 10.1592 198.853L10.1349 198.667L10.3171 198.691C10.4325 198.709 13.1771 199.118 15.1324 201.065C17.0876 203.019 17.4641 205.724 17.4762 205.844L17.5005 206.025L17.3184 206ZM10.1835 198.817C10.2017 198.703 10.6086 195.986 12.582 194.044C14.5555 192.108 17.288 191.736 17.4034 191.724L17.5916 191.7L17.5673 191.88C17.5491 191.994 17.1423 194.711 15.1688 196.653C13.1953 198.589 10.4628 198.961 10.3475 198.973L10.1592 198.997L10.1835 198.811V198.817ZM10.2199 199.088C10.1046 199.069 7.35993 198.661 5.40468 196.713C3.44943 194.759 3.07295 192.054 3.06081 191.94L3.03652 191.754L3.21868 191.778C3.33406 191.796 6.0787 192.199 8.03395 194.152C9.9892 196.106 10.3657 198.811 10.3778 198.925L10.4021 199.112L10.2139 199.088H10.2199ZM19.7533 205.898C19.7715 205.784 20.1844 203.067 22.1518 201.125C24.1253 199.19 26.8578 198.817 26.9732 198.805L27.1614 198.781L27.1371 198.961C27.1189 199.075 26.7121 201.793 24.7386 203.734C22.7651 205.67 20.0326 206.043 19.9173 206.055L19.729 206.079L19.7533 205.892V205.898ZM34.0959 206.006C33.9805 205.988 31.2359 205.58 29.2806 203.632C27.3254 201.678 26.9489 198.973 26.9367 198.859L26.9125 198.673L27.0946 198.697C27.21 198.715 29.9546 199.124 31.9099 201.071C33.8651 203.025 34.2416 205.73 34.2538 205.85L34.278 206.031L34.0959 206.006ZM26.961 198.823C26.9792 198.709 27.3861 195.992 29.3596 194.05C31.333 192.114 34.0655 191.742 34.1809 191.73L34.3691 191.706L34.3448 191.886C34.3266 192 33.9137 194.717 31.9463 196.659C29.9728 198.595 27.2404 198.967 27.125 198.979L26.9367 199.003L26.961 198.817V198.823ZM26.9975 199.094C26.8821 199.075 24.1375 198.667 22.1822 196.719C20.2269 194.765 19.8505 192.06 19.8383 191.946L19.814 191.76L19.9962 191.784C20.1116 191.802 22.8562 192.205 24.8115 194.158C26.7667 196.112 27.1432 198.817 27.1553 198.931L27.1796 199.118L26.9914 199.094H26.9975ZM72.454 61.6036L67.6813 56.6563L72.454 51.709V50.8915H62.8357V53.302H66.9708L63.9651 56.6563L66.9708 60.0106H62.8357V62.4211H72.454V61.6036ZM41.7408 51.709L46.5196 56.6563L41.7408 61.6036V62.4211H51.3592V60.0106H47.224L50.2297 56.6563L47.224 53.302H51.3592V50.8915H41.7408V51.709ZM52.1061 71.8708L57.1035 67.14L62.0948 71.8708H62.9207V62.343H60.4857V66.4366L57.1035 63.4611L53.7213 66.4366V62.343H51.2863V71.8708H52.1121H52.1061ZM62.0948 41.4418L57.1035 46.1726L52.1061 41.4418H51.2802V50.9696H53.7152V46.8759L57.0974 49.8515L60.4796 46.8759V50.9696H62.9146V41.4418H62.0888H62.0948ZM60.5707 57.035C60.5707 58.9286 59.0162 60.4674 57.1035 60.4674C55.1907 60.4674 53.6363 58.9286 53.6363 57.035C53.6363 55.1414 55.1907 53.6026 57.1035 53.6026C59.0162 53.6026 60.5707 55.1414 60.5707 57.035ZM66.2422 69.7368L69.9159 66.1L73.5895 69.7368L69.9159 73.3737L66.2422 69.7368ZM66.2422 44.0026L69.9159 40.3657L73.5895 44.0026L69.9159 47.6394L66.2422 44.0026ZM40.3928 69.7368L44.0664 66.1L47.7401 69.7368L44.0664 73.3737L40.3928 69.7368ZM40.3928 44.0026L44.0664 40.3657L47.7401 44.0026L44.0664 47.6394L40.3928 44.0026ZM49.41 7.23758C47.898 7.23758 46.6714 8.45186 46.6714 9.94866C46.6714 11.4455 47.898 12.6658 49.41 12.6658C50.922 12.6658 52.1486 11.4515 52.1486 9.94866C52.1486 8.44584 50.922 7.23758 49.41 7.23758ZM49.41 8.46989C48.5842 8.46989 47.9162 9.13113 47.9162 9.94866C47.9162 10.7662 48.5842 11.4274 49.41 11.4274C50.2358 11.4274 50.9038 10.7662 50.9038 9.94866C50.9038 9.13113 50.2358 8.46989 49.41 8.46989ZM68.1124 24.8867C66.6004 24.8867 65.3738 26.101 65.3738 27.6038C65.3738 29.1066 66.6004 30.3209 68.1124 30.3209C69.6244 30.3209 70.851 29.1066 70.851 27.6038C70.851 26.101 69.6244 24.8867 68.1124 24.8867ZM68.1124 26.119C67.2866 26.119 66.6186 26.7802 66.6186 27.5978C66.6186 28.4153 67.2866 29.0766 68.1124 29.0766C68.9382 29.0766 69.6062 28.4153 69.6062 27.5978C69.6062 26.7802 68.9382 26.119 68.1124 26.119ZM28.2301 68.246C28.2301 68.246 26.8214 76.0667 22.6315 76.0667H32.5778C32.5778 76.0667 28.2301 71.1795 28.2301 68.246ZM9.48521 68.246C9.48521 68.246 8.07645 76.0667 3.88663 76.0667H13.8329C13.8329 76.0667 9.48521 71.1795 9.48521 68.246ZM99.3357 15.6654C99.3357 15.6654 84.8839 20.3061 76.7653 8.19337C76.7653 8.19337 92.128 3.82918 99.3357 15.6654ZM103.781 13.6336C103.781 13.6336 95.3402 11.6919 98.4431 0.913714C98.4431 0.913714 106.003 4.17784 103.781 13.6336ZM90.0938 33.4768C86.833 37.1016 81.7931 37.9252 78.8359 35.3163C75.8788 32.7074 76.1217 27.6519 79.3824 24.0271C82.6432 20.4023 87.6831 19.5787 90.6403 22.1876C93.5975 24.7965 93.3546 29.852 90.0938 33.4768ZM108.851 28.7519C108.851 33.6091 105.639 37.5464 101.68 37.5464C97.7205 37.5464 94.5083 33.6091 94.5083 28.7519C94.5083 23.8948 97.7205 19.9574 101.68 19.9574C105.639 19.9574 108.851 23.8948 108.851 28.7519Z" stroke="#8BA9D8" stroke-width="0.500002" stroke-miterlimit="10"/>
</g>
<defs>
<filter id="filter0_d_957_1641" x="0" y="0" width="114" height="226" filterUnits="userSpaceOnUse" color-interpolation-filters="sRGB">
<feFlood flood-opacity="0" result="BackgroundImageFix"/>
<feColorMatrix in="SourceAlpha" type="matrix" values="0 0 0 0 0 0 0 0 0 0 0 0 0 0 0 0 0 0 127 0" result="hardAlpha"/>
<feOffset/>
<feComposite in2="hardAlpha" operator="out"/>
<feColorMatrix type="matrix" values="0 0 0 0 0.545098 0 0 0 0 0.662745 0 0 0 0 0.847059 0 0 0 1 0"/>
<feBlend mode="normal" in2="BackgroundImageFix" result="effect1_dropShadow_957_1641"/>
<feBlend mode="normal" in="SourceGraphic" in2="effect1_dropShadow_957_1641" result="shape"/>
</filter>
<clipPath id="clip0_957_1641">
<rect width="114" height="226" fill="white"/>
</clipPath>
</defs>
</svg>
